<svg width="251" height="234" viewBox="0 0 251 234" fill="none" xmlns="http://www.w3.org/2000/svg">
<path d="M250.317 48.7499C250.317 55.694 239.945 60.5075 228.878 59.6253L216.237 58.6378L205.189 90.3458C204.098 93.4803 201.154 95.5934 197.829 95.6448L193.396 95.68L192.963 57.964C134.466 71.7306 93.6845 129.985 90.5324 172.117C87.0691 218.44 134.258 218.44 134.258 218.44C93.5628 256.537 20.3982 221.47 68.8856 137.743C101.302 81.7566 152.422 60.9078 180.701 53.8243H180.719C180.736 53.8243 180.752 53.8243 180.77 53.8068C181.238 53.6851 181.549 53.2007 181.445 52.7163C181.341 52.2144 180.874 51.902 180.371 51.9885H180.319C180.302 51.9885 180.286 51.9885 180.268 52.0061C160.111 55.6426 140.421 62.2228 121.702 70.8647C139.988 61.3746 159.453 53.8243 179.68 49.184C179.715 49.184 179.749 49.1665 179.766 49.1665C180.181 49.0799 180.476 48.6821 180.424 48.2492C180.372 47.7811 179.956 47.4524 179.489 47.5051C179.454 47.5051 179.42 47.5226 179.402 47.5226C118.447 56.7004 48.3128 91.3521 26.4238 136.411C1.73031 187.272 37.2818 222.685 37.2818 222.685C3.083 200.515 -18.1297 133.153 58.9298 82.3614C114.57 45.6843 158.23 42.4821 188.27 40.6099L192.772 40.6965L192.322 0.711737L196.755 0.660289C200.08 0.625154 203.058 2.66926 204.236 5.78622L216.584 38.8268L228.878 37.8568C229.744 37.7878 230.61 37.7526 231.458 37.7526C241.503 37.7539 250.317 42.3428 250.317 48.7499Z" fill="url(#paint0_linear_512_70)"/>
<path d="M216.584 38.8268L204.236 5.78622C203.059 2.66926 200.08 0.625154 196.755 0.660289L192.322 0.711737L192.772 40.6965C192.772 40.6965 203.672 39.3124 216.584 38.8268Z" fill="url(#paint1_linear_512_70)"/>
<path d="M90.5333 172.116C93.6854 129.984 134.467 71.7293 192.964 57.9627C192.964 57.9627 113.958 66.8807 78.1696 152.588C64.2914 185.823 74.0827 214.542 106.364 232.869C116.142 231.011 125.888 226.276 134.26 218.44C134.26 218.44 87.0701 218.439 90.5333 172.116Z" fill="url(#paint2_linear_512_70)"/>
<path d="M250.317 48.7499C250.317 55.694 239.944 60.5075 228.878 59.6253L216.237 58.6378C209.449 58.5688 198.712 58.1873 194.626 58.0317C194.539 58.0317 194.452 58.0142 194.383 58.0142C193.933 57.9627 193.466 57.9452 192.963 57.9627C206.383 57.2186 250.126 53.5985 241.173 39.3124C246.56 41.1821 250.317 44.5763 250.317 48.7499Z" fill="url(#paint3_linear_512_70)"/>
<path d="M192.964 57.9627L193.397 95.6787L197.83 95.6436C201.156 95.5921 204.099 93.479 205.19 90.3445L216.238 58.6366C207.712 58.545 192.964 57.9627 192.964 57.9627Z" fill="url(#paint4_linear_512_70)"/>
<path d="M37.284 222.681C37.284 222.681 1.73256 187.268 26.4261 136.408C48.3151 91.3483 118.448 56.6979 179.405 47.5189C179.422 47.5189 179.456 47.5013 179.491 47.5013C179.491 47.5013 107.742 53.2471 62.61 88.5602C17.478 123.873 13.9055 149.602 14.5555 180.34C14.8805 195.731 25.7899 210.906 36.6026 222.221C36.8298 222.375 37.0556 222.533 37.284 222.681Z" fill="url(#paint5_linear_512_70)"/>
<path d="M143.206 92.4576C143.206 92.4576 100.058 125.793 99.1918 172.116C98.326 218.439 139.887 216.274 152.441 199.823C152.441 199.823 116.565 198.027 118.673 156.964C120.782 115.901 143.206 92.4576 143.206 92.4576Z" fill="url(#paint6_linear_512_70)"/>
<path opacity="0.35" d="M141.386 94.5695C132.143 105.607 91.5337 158.146 112.691 205.795C125.75 214.712 144.663 210.018 152.442 199.823C152.442 199.823 116.566 198.027 118.674 156.964C120.416 123.041 136.012 101.159 141.386 94.5695Z" fill="#C9EFFE"/>
<path d="M0.831948 160.427C0.831948 160.427 -2.54476 69.1833 156.339 37.7451C156.339 37.7451 64.2767 46.042 27.3274 88.9943C-7.30679 129.256 0.831948 160.427 0.831948 160.427Z" fill="url(#paint7_linear_512_70)"/>
<path opacity="0.35" d="M0.831948 160.427C0.831948 160.427 -1.75297 90.396 104.443 51.9007C73.1759 59.8374 49.4699 71.7318 31.6277 84.4017C30.1269 85.8886 28.6864 87.4158 27.3274 88.9956C-7.30679 129.256 0.831948 160.427 0.831948 160.427Z" fill="#C9EFFE"/>
<defs>
<linearGradient id="paint0_linear_512_70" x1="153.651" y1="38.6378" x2="91.3096" y2="188.141" gradientUnits="userSpaceOnUse">
<stop stop-color="#145E7B"/>
<stop offset="1" stop-color="#00B4FA"/>
</linearGradient>
<linearGradient id="paint1_linear_512_70" x1="202.167" y1="22.661" x2="205.187" y2="43.2245" gradientUnits="userSpaceOnUse">
<stop stop-color="#00B4FA"/>
<stop offset="0.9997" stop-color="#145E7B"/>
</linearGradient>
<linearGradient id="paint2_linear_512_70" x1="98.5362" y1="202.403" x2="155.682" y2="75.9889" gradientUnits="userSpaceOnUse">
<stop stop-color="#96E2FF"/>
<stop offset="0.9997" stop-color="#00B4FA" stop-opacity="0.2"/>
</linearGradient>
<linearGradient id="paint3_linear_512_70" x1="215.003" y1="58.4596" x2="247.689" y2="46.3377" gradientUnits="userSpaceOnUse">
<stop stop-color="#00B4FA"/>
<stop offset="0.9997" stop-color="#00B4FA" stop-opacity="0.2"/>
</linearGradient>
<linearGradient id="paint4_linear_512_70" x1="204.601" y1="79.0171" x2="204.601" y2="55.8806" gradientUnits="userSpaceOnUse">
<stop stop-color="#00B4FA"/>
<stop offset="0.9997" stop-color="#145E7B"/>
</linearGradient>
<linearGradient id="paint5_linear_512_70" x1="14.7873" y1="187.148" x2="148.561" y2="65.4962" gradientUnits="userSpaceOnUse">
<stop stop-color="#96E2FF"/>
<stop offset="0.9997" stop-color="#00B4FA" stop-opacity="0.2"/>
</linearGradient>
<linearGradient id="paint6_linear_512_70" x1="126.98" y1="116.774" x2="125.826" y2="185.465" gradientUnits="userSpaceOnUse">
<stop stop-color="#00B4FA"/>
<stop offset="0.9997" stop-color="#00B4FA" stop-opacity="0.2"/>
</linearGradient>
<linearGradient id="paint7_linear_512_70" x1="97.2045" y1="58.0021" x2="22.1642" y2="129.002" gradientUnits="userSpaceOnUse">
<stop stop-color="#00B4FA"/>
<stop offset="0.9997" stop-color="#00B4FA" stop-opacity="0.2"/>
</linearGradient>
</defs>
</svg>
