<svg width="461" height="234" viewBox="0 0 461 234" fill="none" xmlns="http://www.w3.org/2000/svg">
<path d="M250.317 48.7499C250.317 55.694 239.945 60.5075 228.878 59.6253L216.237 58.6378L205.189 90.3458C204.098 93.4803 201.154 95.5934 197.829 95.6448L193.396 95.68L192.963 57.964C134.466 71.7306 93.6845 129.985 90.5324 172.117C87.0691 218.44 134.258 218.44 134.258 218.44C93.5628 256.537 20.3982 221.47 68.8856 137.743C101.302 81.7566 152.422 60.9078 180.701 53.8243H180.719C180.736 53.8243 180.752 53.8243 180.77 53.8068C181.238 53.6851 181.549 53.2007 181.445 52.7163C181.341 52.2144 180.874 51.902 180.371 51.9885H180.319C180.302 51.9885 180.286 51.9885 180.268 52.0061C160.111 55.6426 140.421 62.2228 121.702 70.8647C139.988 61.3746 159.453 53.8243 179.68 49.184C179.715 49.184 179.749 49.1665 179.766 49.1665C180.181 49.0799 180.476 48.6821 180.424 48.2492C180.372 47.7811 179.956 47.4524 179.489 47.5051C179.454 47.5051 179.42 47.5226 179.402 47.5226C118.447 56.7004 48.3128 91.3521 26.4238 136.411C1.73031 187.272 37.2818 222.685 37.2818 222.685C3.083 200.515 -18.1297 133.153 58.9298 82.3614C114.57 45.6843 158.23 42.4821 188.27 40.6099L192.772 40.6965L192.322 0.711737L196.755 0.660289C200.08 0.625154 203.058 2.66926 204.236 5.78622L216.584 38.8268L228.878 37.8568C229.744 37.7878 230.61 37.7526 231.458 37.7526C241.503 37.7539 250.317 42.3428 250.317 48.7499Z" fill="url(#paint0_linear_512_68)"/>
<path d="M216.584 38.8268L204.236 5.78622C203.059 2.66926 200.08 0.625154 196.755 0.660289L192.322 0.711737L192.772 40.6965C192.772 40.6965 203.672 39.3124 216.584 38.8268Z" fill="url(#paint1_linear_512_68)"/>
<path d="M90.5333 172.116C93.6854 129.984 134.467 71.7293 192.964 57.9627C192.964 57.9627 113.958 66.8807 78.1696 152.588C64.2914 185.823 74.0827 214.542 106.364 232.869C116.142 231.011 125.888 226.276 134.26 218.44C134.26 218.44 87.0701 218.439 90.5333 172.116Z" fill="url(#paint2_linear_512_68)"/>
<path d="M250.317 48.7499C250.317 55.694 239.944 60.5075 228.878 59.6253L216.237 58.6378C209.449 58.5688 198.712 58.1873 194.626 58.0317C194.539 58.0317 194.452 58.0142 194.383 58.0142C193.933 57.9627 193.466 57.9452 192.963 57.9627C206.383 57.2186 250.126 53.5985 241.173 39.3124C246.56 41.1821 250.317 44.5763 250.317 48.7499Z" fill="url(#paint3_linear_512_68)"/>
<path d="M192.964 57.9627L193.397 95.6787L197.83 95.6436C201.156 95.5921 204.099 93.479 205.19 90.3445L216.238 58.6366C207.712 58.545 192.964 57.9627 192.964 57.9627Z" fill="url(#paint4_linear_512_68)"/>
<path d="M37.284 222.681C37.284 222.681 1.73256 187.268 26.4261 136.408C48.3151 91.3483 118.448 56.6979 179.405 47.5189C179.422 47.5189 179.456 47.5013 179.491 47.5013C179.491 47.5013 107.742 53.2471 62.61 88.5602C17.478 123.873 13.9055 149.602 14.5555 180.34C14.8805 195.731 25.7899 210.906 36.6026 222.221C36.8298 222.375 37.0556 222.533 37.284 222.681Z" fill="url(#paint5_linear_512_68)"/>
<path d="M143.206 92.4576C143.206 92.4576 100.058 125.793 99.1918 172.116C98.326 218.439 139.887 216.274 152.441 199.823C152.441 199.823 116.565 198.027 118.673 156.964C120.782 115.901 143.206 92.4576 143.206 92.4576Z" fill="url(#paint6_linear_512_68)"/>
<path opacity="0.35" d="M141.386 94.5695C132.143 105.607 91.5337 158.146 112.691 205.795C125.75 214.712 144.663 210.018 152.442 199.823C152.442 199.823 116.566 198.027 118.674 156.964C120.416 123.041 136.012 101.159 141.386 94.5695Z" fill="#C9EFFE"/>
<path d="M0.831948 160.427C0.831948 160.427 -2.54476 69.1833 156.339 37.7451C156.339 37.7451 64.2767 46.042 27.3274 88.9943C-7.30679 129.256 0.831948 160.427 0.831948 160.427Z" fill="url(#paint7_linear_512_68)"/>
<path opacity="0.35" d="M0.831948 160.427C0.831948 160.427 -1.75297 90.396 104.443 51.9007C73.1759 59.8374 49.4699 71.7318 31.6277 84.4017C30.1269 85.8886 28.6864 87.4158 27.3274 88.9956C-7.30679 129.256 0.831948 160.427 0.831948 160.427Z" fill="#C9EFFE"/>
<path d="M169.458 159C169.269 159 169.099 158.943 168.948 158.83C168.834 158.679 168.778 158.509 168.778 158.32V119.998C168.778 119.809 168.834 119.658 168.948 119.545C169.099 119.393 169.269 119.318 169.458 119.318H183.914C186.862 119.318 189.469 119.828 191.737 120.848C194.004 121.869 195.762 123.324 197.009 125.213C198.256 127.103 198.88 129.276 198.88 131.733V146.585C198.88 149.042 198.256 151.215 197.009 153.104C195.762 154.994 194.004 156.449 191.737 157.469C189.469 158.49 186.862 159 183.914 159H169.458ZM178.188 150.667C178.188 150.856 178.283 150.95 178.472 150.95H184.311C185.822 150.95 187.05 150.421 187.995 149.363C188.94 148.267 189.431 146.812 189.469 144.998V133.32C189.469 131.506 188.978 130.07 187.995 129.012C187.05 127.916 185.803 127.368 184.254 127.368H178.472C178.283 127.368 178.188 127.462 178.188 127.651V150.667ZM218.617 159.624C215.555 159.624 212.853 159.019 210.51 157.81C208.205 156.562 206.41 154.824 205.125 152.594C203.84 150.364 203.197 147.776 203.197 144.828V133.49C203.197 130.618 203.84 128.086 205.125 125.894C206.41 123.664 208.205 121.944 210.51 120.735C212.853 119.488 215.555 118.864 218.617 118.864C221.678 118.864 224.38 119.488 226.723 120.735C229.066 121.944 230.88 123.664 232.165 125.894C233.45 128.086 234.093 130.618 234.093 133.49V144.828C234.093 147.776 233.45 150.364 232.165 152.594C230.88 154.824 229.066 156.562 226.723 157.81C224.38 159.019 221.678 159.624 218.617 159.624ZM218.617 151.574C220.431 151.574 221.886 150.988 222.982 149.816C224.115 148.645 224.682 147.076 224.682 145.111V133.377C224.682 131.449 224.115 129.9 222.982 128.728C221.886 127.519 220.431 126.914 218.617 126.914C216.84 126.914 215.385 127.519 214.252 128.728C213.156 129.9 212.608 131.449 212.608 133.377V145.111C212.608 147.076 213.156 148.645 214.252 149.816C215.385 150.988 216.84 151.574 218.617 151.574ZM239.71 159C239.521 159 239.351 158.943 239.2 158.83C239.087 158.679 239.03 158.509 239.03 158.32V119.998C239.03 119.809 239.087 119.658 239.2 119.545C239.351 119.393 239.521 119.318 239.71 119.318H247.76C247.949 119.318 248.1 119.393 248.214 119.545C248.365 119.658 248.44 119.809 248.44 119.998V150.667C248.44 150.856 248.535 150.95 248.724 150.95H266.807C266.996 150.95 267.148 151.026 267.261 151.177C267.412 151.29 267.488 151.441 267.488 151.63V158.32C267.488 158.509 267.412 158.679 267.261 158.83C267.148 158.943 266.996 159 266.807 159H239.71ZM297.876 159C297.46 159 297.196 158.811 297.082 158.433L295.609 153.388C295.533 153.237 295.438 153.161 295.325 153.161H282.4C282.287 153.161 282.192 153.237 282.117 153.388L280.643 158.433C280.529 158.811 280.265 159 279.849 159H271.176C270.949 159 270.779 158.943 270.665 158.83C270.552 158.679 270.533 158.471 270.609 158.206L282.74 119.885C282.854 119.507 283.099 119.318 283.477 119.318H294.191C294.569 119.318 294.815 119.507 294.928 119.885L307.116 158.206C307.154 158.282 307.173 158.376 307.173 158.49C307.173 158.83 306.965 159 306.55 159H297.876ZM284.384 145.565C284.346 145.791 284.422 145.905 284.611 145.905H293.058C293.284 145.905 293.36 145.791 293.284 145.565L288.976 130.996C288.938 130.845 288.881 130.788 288.806 130.826C288.73 130.826 288.674 130.882 288.636 130.996L284.384 145.565ZM333.836 119.998C333.836 119.809 333.893 119.658 334.006 119.545C334.157 119.393 334.327 119.318 334.516 119.318H342.566C342.755 119.318 342.906 119.393 343.02 119.545C343.171 119.658 343.246 119.809 343.246 119.998V158.32C343.246 158.509 343.171 158.679 343.02 158.83C342.906 158.943 342.755 159 342.566 159H334.856C334.478 159 334.214 158.849 334.063 158.546L321.024 136.891C320.949 136.778 320.873 136.74 320.797 136.778C320.722 136.778 320.684 136.854 320.684 137.005L320.741 158.32C320.741 158.509 320.665 158.679 320.514 158.83C320.401 158.943 320.249 159 320.061 159H312.011C311.822 159 311.652 158.943 311.5 158.83C311.387 158.679 311.33 158.509 311.33 158.32V119.998C311.33 119.809 311.387 119.658 311.5 119.545C311.652 119.393 311.822 119.318 312.011 119.318H319.777C320.155 119.318 320.42 119.469 320.571 119.771L333.552 141.37C333.628 141.483 333.704 141.54 333.779 141.54C333.855 141.502 333.893 141.408 333.893 141.256L333.836 119.998Z" fill="#145E7B"/>
<path d="M350.905 159C350.717 159 350.546 158.943 350.395 158.83C350.282 158.679 350.225 158.509 350.225 158.32V119.998C350.225 119.809 350.282 119.658 350.395 119.545C350.546 119.393 350.717 119.318 350.905 119.318H356.121C356.31 119.318 356.461 119.393 356.574 119.545C356.726 119.658 356.801 119.809 356.801 119.998V136.948C356.801 137.061 356.839 137.137 356.914 137.175C356.99 137.213 357.066 137.194 357.141 137.118L371.88 119.715C372.107 119.45 372.391 119.318 372.731 119.318H378.626C379.004 119.318 379.193 119.45 379.193 119.715C379.193 119.828 379.137 119.979 379.023 120.168L366.041 136.098C365.928 136.249 365.909 136.381 365.985 136.495L379.93 158.206C380.006 158.433 380.044 158.565 380.044 158.603C380.044 158.868 379.855 159 379.477 159H373.524C373.184 159 372.92 158.849 372.731 158.546L361.506 141.086C361.355 140.86 361.223 140.841 361.109 141.03L356.914 145.905C356.839 146.056 356.801 146.188 356.801 146.302V158.32C356.801 158.509 356.726 158.679 356.574 158.83C356.461 158.943 356.31 159 356.121 159H350.905ZM399.268 159.454C396.471 159.454 393.996 158.906 391.841 157.81C389.687 156.714 388.006 155.164 386.796 153.161C385.625 151.12 385.039 148.777 385.039 146.132V119.998C385.039 119.809 385.096 119.658 385.209 119.545C385.36 119.393 385.53 119.318 385.719 119.318H390.934C391.123 119.318 391.275 119.393 391.388 119.545C391.539 119.658 391.615 119.809 391.615 119.998V146.245C391.615 148.475 392.314 150.289 393.712 151.687C395.111 153.085 396.962 153.785 399.268 153.785C401.573 153.785 403.425 153.085 404.823 151.687C406.222 150.289 406.921 148.475 406.921 146.245V119.998C406.921 119.809 406.977 119.658 407.091 119.545C407.242 119.393 407.412 119.318 407.601 119.318H412.816C413.005 119.318 413.157 119.393 413.27 119.545C413.421 119.658 413.497 119.809 413.497 119.998V146.132C413.497 148.777 412.911 151.12 411.739 153.161C410.568 155.164 408.905 156.714 406.751 157.81C404.596 158.906 402.102 159.454 399.268 159.454ZM431.622 158.943C431.434 158.943 431.263 158.887 431.112 158.773C430.999 158.622 430.942 158.452 430.942 158.263V143.07C430.942 142.919 430.923 142.806 430.886 142.73L419.208 120.111C419.132 119.96 419.094 119.847 419.094 119.771C419.094 119.469 419.302 119.318 419.718 119.318H425.33C425.708 119.318 425.972 119.488 426.124 119.828L434.06 135.644C434.173 135.795 434.287 135.795 434.4 135.644L442.393 119.828C442.582 119.488 442.847 119.318 443.187 119.318H448.856C449.12 119.318 449.291 119.393 449.366 119.545C449.479 119.696 449.479 119.885 449.366 120.111L437.632 142.73C437.556 142.881 437.518 142.995 437.518 143.07V158.263C437.518 158.452 437.443 158.622 437.291 158.773C437.178 158.887 437.027 158.943 436.838 158.943H431.622Z" fill="#00B4FA"/>
<path d="M172.538 175.755C172.49 175.784 172.49 175.813 172.538 175.841C173.554 176.272 174.061 177.072 174.061 178.241C174.061 179.122 173.769 179.803 173.185 180.282C172.6 180.761 171.839 181 170.9 181H167.322C167.226 181 167.178 180.952 167.178 180.856V171.085C167.178 170.989 167.226 170.941 167.322 170.941H170.785C171.781 170.941 172.552 171.171 173.099 171.631C173.654 172.081 173.932 172.742 173.932 173.614C173.932 174.649 173.467 175.362 172.538 175.755ZM168.615 172.134C168.577 172.134 168.558 172.153 168.558 172.191V175.223C168.558 175.262 168.577 175.281 168.615 175.281H170.785C171.341 175.281 171.777 175.142 172.093 174.864C172.418 174.586 172.581 174.208 172.581 173.729C172.581 173.24 172.418 172.852 172.093 172.565C171.777 172.278 171.341 172.134 170.785 172.134H168.615ZM170.9 179.793C171.446 179.793 171.877 179.644 172.193 179.348C172.519 179.041 172.682 178.629 172.682 178.112C172.682 177.594 172.519 177.187 172.193 176.89C171.868 176.584 171.422 176.43 170.857 176.43H168.615C168.577 176.43 168.558 176.45 168.558 176.488V179.735C168.558 179.774 168.577 179.793 168.615 179.793H170.9ZM181.893 176.43C181.931 176.823 181.946 177.264 181.936 177.752C181.936 177.848 181.888 177.896 181.792 177.896H177.209C177.17 177.896 177.151 177.915 177.151 177.954C177.151 178.279 177.18 178.528 177.237 178.701C177.343 179.084 177.553 179.386 177.87 179.606C178.195 179.817 178.602 179.922 179.091 179.922C179.8 179.922 180.346 179.63 180.729 179.046C180.777 178.95 180.839 178.936 180.916 179.003L181.735 179.549C181.802 179.606 181.816 179.668 181.778 179.735C181.51 180.167 181.127 180.507 180.628 180.756C180.14 181.005 179.584 181.129 178.962 181.129C178.262 181.129 177.673 180.976 177.194 180.67C176.715 180.363 176.356 179.927 176.116 179.362C175.887 178.797 175.772 178.112 175.772 177.307C175.772 176.608 175.824 176.076 175.93 175.712C176.102 175.051 176.447 174.529 176.964 174.146C177.482 173.763 178.109 173.571 178.847 173.571C179.814 173.571 180.537 173.815 181.016 174.304C181.495 174.783 181.788 175.492 181.893 176.43ZM178.847 174.764C178.435 174.764 178.095 174.869 177.826 175.08C177.558 175.281 177.376 175.554 177.28 175.899C177.213 176.11 177.17 176.378 177.151 176.704C177.151 176.742 177.17 176.761 177.209 176.761H180.499C180.537 176.761 180.557 176.742 180.557 176.704C180.537 176.387 180.509 176.153 180.47 175.999C180.375 175.626 180.183 175.329 179.896 175.109C179.618 174.879 179.268 174.764 178.847 174.764ZM186.881 173.614C187.188 173.614 187.465 173.676 187.715 173.801C187.782 173.83 187.806 173.887 187.786 173.973L187.556 175.051C187.547 175.137 187.489 175.166 187.384 175.137C187.221 175.07 187.03 175.037 186.809 175.037L186.608 175.051C186.158 175.07 185.784 175.228 185.487 175.525C185.2 175.813 185.056 176.191 185.056 176.66V180.856C185.056 180.952 185.008 181 184.913 181H183.82C183.725 181 183.677 180.952 183.677 180.856V173.83C183.677 173.734 183.725 173.686 183.82 173.686H184.913C185.008 173.686 185.056 173.734 185.056 173.83V174.591C185.056 174.62 185.061 174.639 185.071 174.649C185.09 174.649 185.104 174.639 185.114 174.62C185.545 173.949 186.134 173.614 186.881 173.614ZM191.511 181.086C190.936 181.086 190.429 181 189.988 180.828C189.557 180.655 189.222 180.42 188.982 180.123C188.743 179.817 188.623 179.482 188.623 179.118V178.96C188.623 178.864 188.671 178.816 188.767 178.816H189.801C189.897 178.816 189.945 178.864 189.945 178.96V179.031C189.945 179.3 190.089 179.534 190.376 179.735C190.673 179.937 191.047 180.037 191.497 180.037C191.928 180.037 192.278 179.946 192.546 179.764C192.814 179.573 192.948 179.333 192.948 179.046C192.948 178.768 192.824 178.562 192.574 178.428C192.325 178.284 191.923 178.136 191.367 177.982C190.821 177.829 190.362 177.676 189.988 177.523C189.624 177.36 189.313 177.135 189.054 176.847C188.805 176.55 188.68 176.172 188.68 175.712C188.68 175.07 188.929 174.562 189.428 174.189C189.935 173.806 190.606 173.614 191.439 173.614C191.995 173.614 192.483 173.705 192.905 173.887C193.336 174.06 193.667 174.304 193.896 174.62C194.126 174.936 194.241 175.291 194.241 175.683V175.726C194.241 175.822 194.193 175.87 194.098 175.87H193.092C192.996 175.87 192.948 175.822 192.948 175.726V175.683C192.948 175.405 192.809 175.176 192.531 174.994C192.263 174.802 191.894 174.706 191.425 174.706C191.003 174.706 190.659 174.788 190.39 174.95C190.132 175.113 190.002 175.334 190.002 175.611C190.002 175.889 190.127 176.1 190.376 176.244C190.635 176.387 191.047 176.541 191.612 176.704C192.167 176.857 192.627 177.01 192.991 177.163C193.365 177.307 193.681 177.527 193.94 177.824C194.198 178.112 194.328 178.49 194.328 178.96C194.328 179.611 194.069 180.128 193.552 180.511C193.044 180.895 192.364 181.086 191.511 181.086ZM198.614 173.571C199.198 173.571 199.706 173.676 200.137 173.887C200.578 174.088 200.913 174.376 201.143 174.749C201.383 175.113 201.502 175.53 201.502 175.999V180.856C201.502 180.952 201.454 181 201.359 181H200.267C200.171 181 200.123 180.952 200.123 180.856V180.339C200.123 180.291 200.099 180.282 200.051 180.31C199.802 180.569 199.495 180.77 199.131 180.914C198.777 181.048 198.379 181.115 197.939 181.115C197.23 181.115 196.641 180.938 196.171 180.583C195.711 180.219 195.481 179.673 195.481 178.945C195.481 178.198 195.74 177.614 196.257 177.192C196.784 176.761 197.517 176.545 198.456 176.545H200.065C200.104 176.545 200.123 176.526 200.123 176.488V176.1C200.123 175.678 199.998 175.353 199.749 175.123C199.51 174.883 199.141 174.764 198.643 174.764C198.24 174.764 197.91 174.845 197.651 175.008C197.402 175.161 197.249 175.372 197.191 175.64C197.163 175.736 197.105 175.779 197.019 175.77L195.855 175.611C195.759 175.592 195.716 175.554 195.726 175.496C195.802 174.931 196.104 174.471 196.631 174.117C197.158 173.753 197.819 173.571 198.614 173.571ZM198.24 179.951C198.748 179.951 199.189 179.817 199.562 179.549C199.936 179.28 200.123 178.94 200.123 178.528V177.681C200.123 177.642 200.104 177.623 200.065 177.623H198.715C198.149 177.623 197.699 177.733 197.364 177.954C197.029 178.174 196.861 178.481 196.861 178.873C196.861 179.228 196.986 179.496 197.235 179.678C197.493 179.86 197.829 179.951 198.24 179.951ZM210.966 173.585C211.694 173.585 212.269 173.806 212.69 174.246C213.112 174.677 213.323 175.281 213.323 176.057V180.856C213.323 180.952 213.275 181 213.179 181H212.101C212.005 181 211.958 180.952 211.958 180.856V176.344C211.958 175.865 211.823 175.487 211.555 175.209C211.297 174.922 210.947 174.778 210.506 174.778C210.066 174.778 209.706 174.917 209.429 175.195C209.151 175.473 209.012 175.846 209.012 176.316V180.856C209.012 180.952 208.964 181 208.868 181H207.79C207.695 181 207.647 180.952 207.647 180.856V176.344C207.647 175.865 207.513 175.487 207.244 175.209C206.986 174.922 206.636 174.778 206.195 174.778C205.755 174.778 205.4 174.917 205.132 175.195C204.873 175.473 204.744 175.846 204.744 176.316V180.856C204.744 180.952 204.696 181 204.6 181H203.508C203.413 181 203.365 180.952 203.365 180.856V173.83C203.365 173.734 203.413 173.686 203.508 173.686H204.6C204.696 173.686 204.744 173.734 204.744 173.83V174.318C204.744 174.337 204.749 174.352 204.758 174.361C204.778 174.371 204.797 174.366 204.816 174.347C205.237 173.839 205.851 173.585 206.655 173.585C207.144 173.585 207.561 173.681 207.905 173.873C208.25 174.055 208.518 174.328 208.71 174.692C208.739 174.73 208.768 174.73 208.796 174.692C209.026 174.318 209.328 174.04 209.702 173.858C210.085 173.676 210.506 173.585 210.966 173.585ZM217.909 173.571C218.493 173.571 219.001 173.676 219.432 173.887C219.873 174.088 220.208 174.376 220.438 174.749C220.678 175.113 220.797 175.53 220.797 175.999V180.856C220.797 180.952 220.749 181 220.654 181H219.562C219.466 181 219.418 180.952 219.418 180.856V180.339C219.418 180.291 219.394 180.282 219.346 180.31C219.097 180.569 218.79 180.77 218.426 180.914C218.072 181.048 217.674 181.115 217.234 181.115C216.525 181.115 215.936 180.938 215.466 180.583C215.006 180.219 214.776 179.673 214.776 178.945C214.776 178.198 215.035 177.614 215.552 177.192C216.079 176.761 216.812 176.545 217.751 176.545H219.36C219.399 176.545 219.418 176.526 219.418 176.488V176.1C219.418 175.678 219.293 175.353 219.044 175.123C218.805 174.883 218.436 174.764 217.938 174.764C217.535 174.764 217.205 174.845 216.946 175.008C216.697 175.161 216.544 175.372 216.486 175.64C216.458 175.736 216.4 175.779 216.314 175.77L215.15 175.611C215.054 175.592 215.011 175.554 215.021 175.496C215.097 174.931 215.399 174.471 215.926 174.117C216.453 173.753 217.114 173.571 217.909 173.571ZM217.535 179.951C218.043 179.951 218.484 179.817 218.857 179.549C219.231 179.28 219.418 178.94 219.418 178.528V177.681C219.418 177.642 219.399 177.623 219.36 177.623H218.01C217.444 177.623 216.994 177.733 216.659 177.954C216.324 178.174 216.156 178.481 216.156 178.873C216.156 179.228 216.28 179.496 216.53 179.678C216.788 179.86 217.124 179.951 217.535 179.951ZM225.852 181C225.757 181 225.709 180.952 225.709 180.856V171.085C225.709 170.989 225.757 170.941 225.852 170.941H226.945C227.04 170.941 227.088 170.989 227.088 171.085V175.669C227.088 175.688 227.098 175.702 227.117 175.712C227.136 175.712 227.15 175.702 227.16 175.683L231.27 171.028C231.308 170.97 231.366 170.941 231.442 170.941H232.692C232.75 170.941 232.788 170.961 232.807 170.999C232.826 171.028 232.817 171.066 232.779 171.114L229.359 175.152C229.349 175.18 229.349 175.209 229.359 175.238L233.023 180.828C233.042 180.866 233.052 180.895 233.052 180.914C233.052 180.971 233.013 181 232.937 181H231.686C231.619 181 231.562 180.971 231.514 180.914L228.41 176.215C228.401 176.196 228.386 176.186 228.367 176.186C228.348 176.186 228.334 176.191 228.324 176.201L227.117 177.551C227.098 177.59 227.088 177.614 227.088 177.623V180.856C227.088 180.952 227.04 181 226.945 181H225.852ZM237.064 173.571C237.648 173.571 238.156 173.676 238.587 173.887C239.028 174.088 239.363 174.376 239.593 174.749C239.832 175.113 239.952 175.53 239.952 175.999V180.856C239.952 180.952 239.904 181 239.808 181H238.716C238.62 181 238.572 180.952 238.572 180.856V180.339C238.572 180.291 238.549 180.282 238.501 180.31C238.252 180.569 237.945 180.77 237.581 180.914C237.227 181.048 236.829 181.115 236.388 181.115C235.679 181.115 235.09 180.938 234.621 180.583C234.161 180.219 233.931 179.673 233.931 178.945C233.931 178.198 234.19 177.614 234.707 177.192C235.234 176.761 235.967 176.545 236.906 176.545H238.515C238.553 176.545 238.572 176.526 238.572 176.488V176.1C238.572 175.678 238.448 175.353 238.199 175.123C237.959 174.883 237.591 174.764 237.092 174.764C236.69 174.764 236.36 174.845 236.101 175.008C235.852 175.161 235.699 175.372 235.641 175.64C235.612 175.736 235.555 175.779 235.469 175.77L234.305 175.611C234.209 175.592 234.166 175.554 234.175 175.496C234.252 174.931 234.554 174.471 235.081 174.117C235.608 173.753 236.269 173.571 237.064 173.571ZM236.69 179.951C237.198 179.951 237.638 179.817 238.012 179.549C238.386 179.28 238.572 178.94 238.572 178.528V177.681C238.572 177.642 238.553 177.623 238.515 177.623H237.164C236.599 177.623 236.149 177.733 235.814 177.954C235.478 178.174 235.311 178.481 235.311 178.873C235.311 179.228 235.435 179.496 235.684 179.678C235.943 179.86 236.278 179.951 236.69 179.951ZM249.416 173.585C250.144 173.585 250.719 173.806 251.14 174.246C251.562 174.677 251.772 175.281 251.772 176.057V180.856C251.772 180.952 251.724 181 251.629 181H250.551C250.455 181 250.407 180.952 250.407 180.856V176.344C250.407 175.865 250.273 175.487 250.005 175.209C249.746 174.922 249.397 174.778 248.956 174.778C248.515 174.778 248.156 174.917 247.878 175.195C247.6 175.473 247.461 175.846 247.461 176.316V180.856C247.461 180.952 247.414 181 247.318 181H246.24C246.144 181 246.096 180.952 246.096 180.856V176.344C246.096 175.865 245.962 175.487 245.694 175.209C245.435 174.922 245.086 174.778 244.645 174.778C244.204 174.778 243.85 174.917 243.582 175.195C243.323 175.473 243.194 175.846 243.194 176.316V180.856C243.194 180.952 243.146 181 243.05 181H241.958C241.862 181 241.814 180.952 241.814 180.856V173.83C241.814 173.734 241.862 173.686 241.958 173.686H243.05C243.146 173.686 243.194 173.734 243.194 173.83V174.318C243.194 174.337 243.199 174.352 243.208 174.361C243.227 174.371 243.246 174.366 243.266 174.347C243.687 173.839 244.3 173.585 245.105 173.585C245.593 173.585 246.01 173.681 246.355 173.873C246.7 174.055 246.968 174.328 247.16 174.692C247.188 174.73 247.217 174.73 247.246 174.692C247.476 174.318 247.778 174.04 248.151 173.858C248.534 173.676 248.956 173.585 249.416 173.585ZM254.519 172.536C254.251 172.536 254.031 172.45 253.858 172.278C253.686 172.105 253.6 171.885 253.6 171.617C253.6 171.348 253.686 171.128 253.858 170.956C254.031 170.783 254.251 170.697 254.519 170.697C254.788 170.697 255.008 170.783 255.18 170.956C255.353 171.128 255.439 171.348 255.439 171.617C255.439 171.885 255.353 172.105 255.18 172.278C255.008 172.45 254.788 172.536 254.519 172.536ZM253.945 180.986C253.849 180.986 253.801 180.938 253.801 180.842V173.83C253.801 173.734 253.849 173.686 253.945 173.686H255.037C255.132 173.686 255.18 173.734 255.18 173.83V180.842C255.18 180.938 255.132 180.986 255.037 180.986H253.945ZM260.541 181C260.446 181 260.398 180.952 260.398 180.856V171.085C260.398 170.989 260.446 170.941 260.541 170.941H261.633C261.729 170.941 261.777 170.989 261.777 171.085V179.75C261.777 179.788 261.796 179.807 261.835 179.807H266.792C266.888 179.807 266.936 179.855 266.936 179.951V180.856C266.936 180.952 266.888 181 266.792 181H260.541ZM272.774 173.83C272.774 173.734 272.822 173.686 272.918 173.686H273.996C274.091 173.686 274.139 173.734 274.139 173.83V180.856C274.139 180.952 274.091 181 273.996 181H272.918C272.822 181 272.774 180.952 272.774 180.856V180.325C272.774 180.305 272.765 180.296 272.746 180.296C272.736 180.286 272.722 180.291 272.702 180.31C272.319 180.837 271.73 181.101 270.935 181.101C270.466 181.101 270.03 181.01 269.627 180.828C269.235 180.646 268.918 180.377 268.679 180.023C268.439 179.668 268.32 179.237 268.32 178.73V173.83C268.32 173.734 268.368 173.686 268.463 173.686H269.541C269.637 173.686 269.685 173.734 269.685 173.83V178.299C269.685 178.797 269.814 179.189 270.073 179.477C270.341 179.764 270.715 179.908 271.194 179.908C271.673 179.908 272.056 179.764 272.343 179.477C272.631 179.18 272.774 178.787 272.774 178.299V173.83ZM282.087 175.525C282.269 176.043 282.36 176.656 282.36 177.365C282.36 178.035 282.283 178.615 282.13 179.103C281.929 179.745 281.598 180.243 281.139 180.598C280.679 180.943 280.09 181.115 279.371 181.115C279.045 181.115 278.734 181.053 278.437 180.928C278.15 180.794 277.901 180.607 277.69 180.368C277.671 180.349 277.652 180.344 277.632 180.353C277.623 180.363 277.618 180.377 277.618 180.396V183.601C277.618 183.697 277.57 183.745 277.474 183.745H276.382C276.286 183.745 276.239 183.697 276.239 183.601V173.83C276.239 173.734 276.286 173.686 276.382 173.686H277.474C277.57 173.686 277.618 173.734 277.618 173.83V174.304C277.618 174.323 277.623 174.337 277.632 174.347C277.652 174.357 277.671 174.352 277.69 174.333C277.901 174.093 278.15 173.906 278.437 173.772C278.724 173.638 279.036 173.571 279.371 173.571C280.061 173.571 280.631 173.743 281.081 174.088C281.541 174.424 281.876 174.903 282.087 175.525ZM280.506 179.233C280.813 178.773 280.966 178.14 280.966 177.336C280.966 176.598 280.846 176.004 280.607 175.554C280.329 175.027 279.874 174.764 279.242 174.764C278.686 174.764 278.265 175.022 277.977 175.54C277.747 175.952 277.632 176.555 277.632 177.35C277.632 178.155 277.757 178.768 278.006 179.189C278.284 179.678 278.691 179.922 279.227 179.922C279.802 179.922 280.228 179.692 280.506 179.233ZM286.838 173.571C287.422 173.571 287.93 173.676 288.361 173.887C288.802 174.088 289.137 174.376 289.367 174.749C289.606 175.113 289.726 175.53 289.726 175.999V180.856C289.726 180.952 289.678 181 289.582 181H288.49C288.394 181 288.347 180.952 288.347 180.856V180.339C288.347 180.291 288.323 180.282 288.275 180.31C288.026 180.569 287.719 180.77 287.355 180.914C287.001 181.048 286.603 181.115 286.162 181.115C285.453 181.115 284.864 180.938 284.395 180.583C283.935 180.219 283.705 179.673 283.705 178.945C283.705 178.198 283.964 177.614 284.481 177.192C285.008 176.761 285.741 176.545 286.68 176.545H288.289C288.327 176.545 288.347 176.526 288.347 176.488V176.1C288.347 175.678 288.222 175.353 287.973 175.123C287.733 174.883 287.365 174.764 286.866 174.764C286.464 174.764 286.134 174.845 285.875 175.008C285.626 175.161 285.473 175.372 285.415 175.64C285.386 175.736 285.329 175.779 285.243 175.77L284.079 175.611C283.983 175.592 283.94 175.554 283.949 175.496C284.026 174.931 284.328 174.471 284.855 174.117C285.382 173.753 286.043 173.571 286.838 173.571ZM286.464 179.951C286.972 179.951 287.413 179.817 287.786 179.549C288.16 179.28 288.347 178.94 288.347 178.528V177.681C288.347 177.642 288.327 177.623 288.289 177.623H286.938C286.373 177.623 285.923 177.733 285.588 177.954C285.252 178.174 285.085 178.481 285.085 178.873C285.085 179.228 285.209 179.496 285.458 179.678C285.717 179.86 286.052 179.951 286.464 179.951ZM291.732 181C291.636 181 291.588 180.952 291.588 180.856V171.085C291.588 170.989 291.636 170.941 291.732 170.941H292.824C292.92 170.941 292.968 170.989 292.968 171.085V176.617C292.968 176.636 292.977 176.651 292.997 176.66C293.016 176.67 293.03 176.665 293.04 176.646L295.698 173.758C295.736 173.71 295.794 173.686 295.87 173.686H297.149C297.207 173.686 297.24 173.705 297.25 173.743C297.269 173.772 297.259 173.81 297.221 173.858L295.367 175.999C295.348 176.038 295.344 176.066 295.353 176.086L297.552 180.828L297.566 180.885C297.566 180.962 297.523 181 297.437 181H296.287C296.21 181 296.158 180.962 296.129 180.885L294.419 176.977C294.4 176.929 294.376 176.924 294.347 176.962L292.997 178.457C292.977 178.495 292.968 178.519 292.968 178.528V180.856C292.968 180.952 292.92 181 292.824 181H291.732ZM301.432 173.571C302.016 173.571 302.524 173.676 302.955 173.887C303.396 174.088 303.731 174.376 303.961 174.749C304.2 175.113 304.32 175.53 304.32 175.999V180.856C304.32 180.952 304.272 181 304.176 181H303.084C302.988 181 302.941 180.952 302.941 180.856V180.339C302.941 180.291 302.917 180.282 302.869 180.31C302.62 180.569 302.313 180.77 301.949 180.914C301.595 181.048 301.197 181.115 300.756 181.115C300.047 181.115 299.458 180.938 298.989 180.583C298.529 180.219 298.299 179.673 298.299 178.945C298.299 178.198 298.558 177.614 299.075 177.192C299.602 176.761 300.335 176.545 301.274 176.545H302.883C302.921 176.545 302.941 176.526 302.941 176.488V176.1C302.941 175.678 302.816 175.353 302.567 175.123C302.327 174.883 301.959 174.764 301.46 174.764C301.058 174.764 300.728 174.845 300.469 175.008C300.22 175.161 300.067 175.372 300.009 175.64C299.98 175.736 299.923 175.779 299.837 175.77L298.673 175.611C298.577 175.592 298.534 175.554 298.543 175.496C298.62 174.931 298.922 174.471 299.449 174.117C299.976 173.753 300.637 173.571 301.432 173.571ZM301.058 179.951C301.566 179.951 302.007 179.817 302.38 179.549C302.754 179.28 302.941 178.94 302.941 178.528V177.681C302.941 177.642 302.921 177.623 302.883 177.623H301.532C300.967 177.623 300.517 177.733 300.182 177.954C299.846 178.174 299.679 178.481 299.679 178.873C299.679 179.228 299.803 179.496 300.052 179.678C300.311 179.86 300.646 179.951 301.058 179.951ZM309.444 173.585C310.23 173.585 310.852 173.815 311.312 174.275C311.772 174.725 312.002 175.338 312.002 176.114V180.856C312.002 180.952 311.954 181 311.858 181H310.766C310.67 181 310.623 180.952 310.623 180.856V176.387C310.623 175.908 310.484 175.52 310.206 175.223C309.928 174.926 309.559 174.778 309.099 174.778C308.649 174.778 308.28 174.926 307.993 175.223C307.706 175.52 307.562 175.904 307.562 176.373V180.856C307.562 180.952 307.514 181 307.418 181H306.326C306.23 181 306.182 180.952 306.182 180.856V173.83C306.182 173.734 306.23 173.686 306.326 173.686H307.418C307.514 173.686 307.562 173.734 307.562 173.83V174.347C307.562 174.366 307.567 174.38 307.576 174.39C307.595 174.4 307.61 174.395 307.619 174.376C308.031 173.849 308.64 173.585 309.444 173.585ZM323.529 171.028C323.577 170.97 323.634 170.941 323.701 170.941H324.794C324.889 170.941 324.937 170.989 324.937 171.085V180.856C324.937 180.952 324.889 181 324.794 181H323.701C323.606 181 323.558 180.952 323.558 180.856V173.499C323.558 173.47 323.548 173.451 323.529 173.442C323.51 173.432 323.495 173.442 323.486 173.47L321.431 176.603C321.393 176.66 321.335 176.689 321.259 176.689H320.713C320.646 176.689 320.588 176.66 320.54 176.603L318.471 173.499C318.461 173.47 318.447 173.461 318.428 173.47C318.409 173.48 318.399 173.499 318.399 173.528V180.856C318.399 180.952 318.351 181 318.255 181H317.163C317.068 181 317.02 180.952 317.02 180.856V171.085C317.02 170.989 317.068 170.941 317.163 170.941H318.255C318.332 170.941 318.39 170.97 318.428 171.028L320.942 174.792C320.952 174.802 320.966 174.807 320.986 174.807C321.005 174.807 321.019 174.802 321.029 174.792L323.529 171.028ZM329.792 173.571C330.376 173.571 330.884 173.676 331.315 173.887C331.756 174.088 332.091 174.376 332.321 174.749C332.56 175.113 332.68 175.53 332.68 175.999V180.856C332.68 180.952 332.632 181 332.536 181H331.444C331.349 181 331.301 180.952 331.301 180.856V180.339C331.301 180.291 331.277 180.282 331.229 180.31C330.98 180.569 330.673 180.77 330.309 180.914C329.955 181.048 329.557 181.115 329.117 181.115C328.408 181.115 327.818 180.938 327.349 180.583C326.889 180.219 326.659 179.673 326.659 178.945C326.659 178.198 326.918 177.614 327.435 177.192C327.962 176.761 328.695 176.545 329.634 176.545H331.243C331.282 176.545 331.301 176.526 331.301 176.488V176.1C331.301 175.678 331.176 175.353 330.927 175.123C330.688 174.883 330.319 174.764 329.821 174.764C329.418 174.764 329.088 174.845 328.829 175.008C328.58 175.161 328.427 175.372 328.369 175.64C328.341 175.736 328.283 175.779 328.197 175.77L327.033 175.611C326.937 175.592 326.894 175.554 326.904 175.496C326.98 174.931 327.282 174.471 327.809 174.117C328.336 173.753 328.997 173.571 329.792 173.571ZM329.418 179.951C329.926 179.951 330.367 179.817 330.74 179.549C331.114 179.28 331.301 178.94 331.301 178.528V177.681C331.301 177.642 331.282 177.623 331.243 177.623H329.892C329.327 177.623 328.877 177.733 328.542 177.954C328.206 178.174 328.039 178.481 328.039 178.873C328.039 179.228 328.163 179.496 328.412 179.678C328.671 179.86 329.006 179.951 329.418 179.951ZM337.115 181.086C336.54 181.086 336.032 181 335.591 180.828C335.16 180.655 334.825 180.42 334.586 180.123C334.346 179.817 334.226 179.482 334.226 179.118V178.96C334.226 178.864 334.274 178.816 334.37 178.816H335.405C335.5 178.816 335.548 178.864 335.548 178.96V179.031C335.548 179.3 335.692 179.534 335.979 179.735C336.276 179.937 336.65 180.037 337.1 180.037C337.531 180.037 337.881 179.946 338.149 179.764C338.417 179.573 338.552 179.333 338.552 179.046C338.552 178.768 338.427 178.562 338.178 178.428C337.929 178.284 337.527 178.136 336.971 177.982C336.425 177.829 335.965 177.676 335.591 177.523C335.227 177.36 334.916 177.135 334.657 176.847C334.408 176.55 334.284 176.172 334.284 175.712C334.284 175.07 334.533 174.562 335.031 174.189C335.539 173.806 336.209 173.614 337.043 173.614C337.598 173.614 338.087 173.705 338.508 173.887C338.94 174.06 339.27 174.304 339.5 174.62C339.73 174.936 339.845 175.291 339.845 175.683V175.726C339.845 175.822 339.797 175.87 339.701 175.87H338.695C338.599 175.87 338.552 175.822 338.552 175.726V175.683C338.552 175.405 338.413 175.176 338.135 174.994C337.867 174.802 337.498 174.706 337.028 174.706C336.607 174.706 336.262 174.788 335.994 174.95C335.735 175.113 335.606 175.334 335.606 175.611C335.606 175.889 335.73 176.1 335.979 176.244C336.238 176.387 336.65 176.541 337.215 176.704C337.771 176.857 338.231 177.01 338.595 177.163C338.968 177.307 339.284 177.527 339.543 177.824C339.802 178.112 339.931 178.49 339.931 178.96C339.931 179.611 339.672 180.128 339.155 180.511C338.647 180.895 337.967 181.086 337.115 181.086ZM344.218 173.571C344.802 173.571 345.31 173.676 345.741 173.887C346.181 174.088 346.517 174.376 346.747 174.749C346.986 175.113 347.106 175.53 347.106 175.999V180.856C347.106 180.952 347.058 181 346.962 181H345.87C345.774 181 345.726 180.952 345.726 180.856V180.339C345.726 180.291 345.702 180.282 345.654 180.31C345.405 180.569 345.099 180.77 344.735 180.914C344.38 181.048 343.983 181.115 343.542 181.115C342.833 181.115 342.244 180.938 341.775 180.583C341.315 180.219 341.085 179.673 341.085 178.945C341.085 178.198 341.344 177.614 341.861 177.192C342.388 176.761 343.121 176.545 344.059 176.545H345.669C345.707 176.545 345.726 176.526 345.726 176.488V176.1C345.726 175.678 345.602 175.353 345.353 175.123C345.113 174.883 344.744 174.764 344.246 174.764C343.844 174.764 343.513 174.845 343.255 175.008C343.006 175.161 342.852 175.372 342.795 175.64C342.766 175.736 342.709 175.779 342.622 175.77L341.459 175.611C341.363 175.592 341.32 175.554 341.329 175.496C341.406 174.931 341.708 174.471 342.235 174.117C342.761 173.753 343.422 173.571 344.218 173.571ZM343.844 179.951C344.352 179.951 344.792 179.817 345.166 179.549C345.539 179.28 345.726 178.94 345.726 178.528V177.681C345.726 177.642 345.707 177.623 345.669 177.623H344.318C343.753 177.623 343.303 177.733 342.967 177.954C342.632 178.174 342.464 178.481 342.464 178.873C342.464 179.228 342.589 179.496 342.838 179.678C343.097 179.86 343.432 179.951 343.844 179.951ZM349.112 181C349.016 181 348.968 180.952 348.968 180.856V171.085C348.968 170.989 349.016 170.941 349.112 170.941H350.204C350.3 170.941 350.348 170.989 350.348 171.085V180.856C350.348 180.952 350.3 181 350.204 181H349.112ZM355.023 173.571C355.607 173.571 356.115 173.676 356.546 173.887C356.987 174.088 357.322 174.376 357.552 174.749C357.791 175.113 357.911 175.53 357.911 175.999V180.856C357.911 180.952 357.863 181 357.767 181H356.675C356.579 181 356.531 180.952 356.531 180.856V180.339C356.531 180.291 356.508 180.282 356.46 180.31C356.211 180.569 355.904 180.77 355.54 180.914C355.186 181.048 354.788 181.115 354.347 181.115C353.638 181.115 353.049 180.938 352.58 180.583C352.12 180.219 351.89 179.673 351.89 178.945C351.89 178.198 352.149 177.614 352.666 177.192C353.193 176.761 353.926 176.545 354.865 176.545H356.474C356.512 176.545 356.531 176.526 356.531 176.488V176.1C356.531 175.678 356.407 175.353 356.158 175.123C355.918 174.883 355.55 174.764 355.051 174.764C354.649 174.764 354.319 174.845 354.06 175.008C353.811 175.161 353.658 175.372 353.6 175.64C353.571 175.736 353.514 175.779 353.428 175.77L352.264 175.611C352.168 175.592 352.125 175.554 352.134 175.496C352.211 174.931 352.513 174.471 353.04 174.117C353.567 173.753 354.228 173.571 355.023 173.571ZM354.649 179.951C355.157 179.951 355.597 179.817 355.971 179.549C356.345 179.28 356.531 178.94 356.531 178.528V177.681C356.531 177.642 356.512 177.623 356.474 177.623H355.123C354.558 177.623 354.108 177.733 353.773 177.954C353.437 178.174 353.27 178.481 353.27 178.873C353.27 179.228 353.394 179.496 353.643 179.678C353.902 179.86 354.237 179.951 354.649 179.951ZM363.035 173.585C363.821 173.585 364.443 173.815 364.903 174.275C365.363 174.725 365.593 175.338 365.593 176.114V180.856C365.593 180.952 365.545 181 365.449 181H364.357C364.261 181 364.213 180.952 364.213 180.856V176.387C364.213 175.908 364.075 175.52 363.797 175.223C363.519 174.926 363.15 174.778 362.69 174.778C362.24 174.778 361.871 174.926 361.584 175.223C361.296 175.52 361.153 175.904 361.153 176.373V180.856C361.153 180.952 361.105 181 361.009 181H359.917C359.821 181 359.773 180.952 359.773 180.856V171.085C359.773 170.989 359.821 170.941 359.917 170.941H361.009C361.105 170.941 361.153 170.989 361.153 171.085V174.347C361.153 174.366 361.158 174.38 361.167 174.39C361.186 174.4 361.201 174.395 361.21 174.376C361.622 173.849 362.23 173.585 363.035 173.585ZM375.163 173.585C375.891 173.585 376.466 173.806 376.887 174.246C377.309 174.677 377.519 175.281 377.519 176.057V180.856C377.519 180.952 377.472 181 377.376 181H376.298C376.202 181 376.154 180.952 376.154 180.856V176.344C376.154 175.865 376.02 175.487 375.752 175.209C375.493 174.922 375.144 174.778 374.703 174.778C374.262 174.778 373.903 174.917 373.625 175.195C373.348 175.473 373.209 175.846 373.209 176.316V180.856C373.209 180.952 373.161 181 373.065 181H371.987C371.891 181 371.844 180.952 371.844 180.856V176.344C371.844 175.865 371.709 175.487 371.441 175.209C371.183 174.922 370.833 174.778 370.392 174.778C369.952 174.778 369.597 174.917 369.329 175.195C369.07 175.473 368.941 175.846 368.941 176.316V180.856C368.941 180.952 368.893 181 368.797 181H367.705C367.609 181 367.561 180.952 367.561 180.856V173.83C367.561 173.734 367.609 173.686 367.705 173.686H368.797C368.893 173.686 368.941 173.734 368.941 173.83V174.318C368.941 174.337 368.946 174.352 368.955 174.361C368.974 174.371 368.994 174.366 369.013 174.347C369.434 173.839 370.047 173.585 370.852 173.585C371.341 173.585 371.757 173.681 372.102 173.873C372.447 174.055 372.715 174.328 372.907 174.692C372.936 174.73 372.964 174.73 372.993 174.692C373.223 174.318 373.525 174.04 373.898 173.858C374.282 173.676 374.703 173.585 375.163 173.585ZM383.787 173.83C383.787 173.734 383.835 173.686 383.931 173.686H385.008C385.104 173.686 385.152 173.734 385.152 173.83V180.856C385.152 180.952 385.104 181 385.008 181H383.931C383.835 181 383.787 180.952 383.787 180.856V180.325C383.787 180.305 383.777 180.296 383.758 180.296C383.749 180.286 383.734 180.291 383.715 180.31C383.332 180.837 382.743 181.101 381.948 181.101C381.478 181.101 381.042 181.01 380.64 180.828C380.247 180.646 379.931 180.377 379.692 180.023C379.452 179.668 379.333 179.237 379.333 178.73V173.83C379.333 173.734 379.38 173.686 379.476 173.686H380.554C380.65 173.686 380.698 173.734 380.698 173.83V178.299C380.698 178.797 380.827 179.189 381.086 179.477C381.354 179.764 381.727 179.908 382.206 179.908C382.685 179.908 383.069 179.764 383.356 179.477C383.643 179.18 383.787 178.787 383.787 178.299V173.83Z" fill="#00B4FA"/>
<defs>
<linearGradient id="paint0_linear_512_68" x1="153.651" y1="38.6378" x2="91.3096" y2="188.141" gradientUnits="userSpaceOnUse">
<stop stop-color="#145E7B"/>
<stop offset="1" stop-color="#00B4FA"/>
</linearGradient>
<linearGradient id="paint1_linear_512_68" x1="202.167" y1="22.661" x2="205.187" y2="43.2245" gradientUnits="userSpaceOnUse">
<stop stop-color="#00B4FA"/>
<stop offset="0.9997" stop-color="#145E7B"/>
</linearGradient>
<linearGradient id="paint2_linear_512_68" x1="98.5362" y1="202.403" x2="155.682" y2="75.9889" gradientUnits="userSpaceOnUse">
<stop stop-color="#96E2FF"/>
<stop offset="0.9997" stop-color="#00B4FA" stop-opacity="0.2"/>
</linearGradient>
<linearGradient id="paint3_linear_512_68" x1="215.003" y1="58.4596" x2="247.689" y2="46.3377" gradientUnits="userSpaceOnUse">
<stop stop-color="#00B4FA"/>
<stop offset="0.9997" stop-color="#00B4FA" stop-opacity="0.2"/>
</linearGradient>
<linearGradient id="paint4_linear_512_68" x1="204.601" y1="79.0171" x2="204.601" y2="55.8806" gradientUnits="userSpaceOnUse">
<stop stop-color="#00B4FA"/>
<stop offset="0.9997" stop-color="#145E7B"/>
</linearGradient>
<linearGradient id="paint5_linear_512_68" x1="14.7873" y1="187.148" x2="148.561" y2="65.4962" gradientUnits="userSpaceOnUse">
<stop stop-color="#96E2FF"/>
<stop offset="0.9997" stop-color="#00B4FA" stop-opacity="0.2"/>
</linearGradient>
<linearGradient id="paint6_linear_512_68" x1="126.98" y1="116.774" x2="125.826" y2="185.465" gradientUnits="userSpaceOnUse">
<stop stop-color="#00B4FA"/>
<stop offset="0.9997" stop-color="#00B4FA" stop-opacity="0.2"/>
</linearGradient>
<linearGradient id="paint7_linear_512_68" x1="97.2045" y1="58.0021" x2="22.1642" y2="129.002" gradientUnits="userSpaceOnUse">
<stop stop-color="#00B4FA"/>
<stop offset="0.9997" stop-color="#00B4FA" stop-opacity="0.2"/>
</linearGradient>
</defs>
</svg>
